<?xml version="1.0" encoding="utf-8"?>
<!-- Generator: Adobe Illustrator 19.0.1, SVG Export Plug-In . SVG Version: 6.00 Build 0)  -->
<svg version="1.1" id="Шар_1" xmlns="http://www.w3.org/2000/svg" xmlns:xlink="http://www.w3.org/1999/xlink" x="0px" y="0px"
	 viewBox="0 0 85.6 85.6" style="enable-background:new 0 0 85.6 85.6;" xml:space="preserve">
<style type="text/css">
	.st0{fill:#0C0E0F;}
</style>
<path class="st0" d="M51.5,17.4l-4.5-0.7l-2-4c-0.4-0.8-1.3-1.4-2.2-1.4c-1,0-1.8,0.5-2.2,1.4l-2,4l-4.5,0.7c-0.9,0.1-1.7,0.8-2,1.7
	c-0.3,0.9,0,1.9,0.6,2.6l3.2,3.2l-0.7,4.5c-0.2,0.9,0.2,1.9,1,2.4c0.8,0.6,1.8,0.6,2.6,0.2l4-2.1l4,2.1c0.8,0.4,1.9,0.4,2.6-0.2
	c0.8-0.6,1.2-1.5,1-2.4l-0.7-4.5l3.2-3.2c0.7-0.7,0.9-1.7,0.6-2.6C53.3,18.2,52.5,17.5,51.5,17.4 M45.3,22.2c-1.2,1.2-0.6,2.6-0.6,3
	L44,24.8c-0.7-0.4-1.6-0.4-2.3,0l-0.7,0.4c0.1-0.6,0.3-1.2,0-2c-0.3-0.8-0.8-1.1-1.2-1.6c0.4-0.1,0.8-0.1,0.8-0.1
	c1.7-0.3,2-1.8,2.2-2.1l0.4,0.7c0.8,1.5,2.3,1.4,2.7,1.5L45.3,22.2z"/>
<path class="st0" d="M83.1,5H70.4c0-0.8,0-1.7,0-2.5c0-1.4-1.1-2.5-2.5-2.5H17.7c-1.4,0-2.5,1.1-2.5,2.5c0,0.8,0,1.7,0,2.5H2.5
	C1.1,5,0,6.1,0,7.5v6.4c0,14,11.1,25.5,25.1,26.2c2.9,4,6.3,6.8,10.1,8.5c-0.3,6.8-2.6,12.3-4.6,15.8C28.4,68.6,26,71,26,71
	c-0.5,0.5-0.7,1.1-0.7,1.8v7.9h-2.5c-1.4,0-2.5,1.1-2.5,2.5c0,1.4,1.1,2.5,2.5,2.5h40.1c1.4,0,2.5-1.1,2.5-2.5
	c0-1.4-1.1-2.5-2.5-2.5h-2.5v-7.9c0-0.6-0.3-1.3-0.7-1.8c-0.1-0.1-8.6-8.7-9.3-22.4c3.8-1.6,7.2-4.5,10.1-8.5
	c14-0.7,25.1-12.2,25.1-26.2V7.5C85.6,6.1,84.5,5,83.1,5 M5,13.9V10h10.5c0.6,8.4,2.5,17.1,6.3,24.6C12.2,32.5,5,24,5,13.9
	 M30.3,75.3h25.1v5.4H30.3V75.3z M47.1,44.5c-1,0.3-1.7,1.3-1.7,2.4c0,10.6,4.2,18.8,7.3,23.4H33c3.2-4.6,7.3-12.7,7.3-23.4
	c0-1.1-0.7-2.1-1.7-2.4c-5.9-1.9-10.1-7.4-12.8-13.1c-3.3-7.1-5.2-16.1-5.5-26.3h45.1c-0.3,10.2-2.1,19.3-5.5,26.3
	C57.2,37,53.1,42.6,47.1,44.5 M80.6,13.9c0,10.1-7.2,18.6-16.7,20.7c3.8-7.4,5.6-16.2,6.3-24.6h10.5V13.9z"/>
</svg>
