<?xml version="1.0" encoding="utf-8"?>
<!-- Generator: Adobe Illustrator 19.0.1, SVG Export Plug-In . SVG Version: 6.00 Build 0)  -->
<svg version="1.1" id="Шар_1" xmlns="http://www.w3.org/2000/svg" xmlns:xlink="http://www.w3.org/1999/xlink" x="0px" y="0px"
	 viewBox="0 0 54 88.5" style="enable-background:new 0 0 54 88.5;" xml:space="preserve">
<style type="text/css">
	.st0{fill:#0C0E0F;}
</style>
<path class="st0" d="M43.4,4.6c-0.8-0.5-1.8-0.3-2.4,0.5c-0.5,0.8-0.3,1.8,0.5,2.4c4.6,3,7.6,7.4,8.7,12.5c-0.8-0.6-1.7-1.2-2.6-1.7
	c-5-2.9-10.3-3.3-15.3-1.3c-7,2.8-10.4,1.3-12.4-0.1c-0.6-0.4-1.1-0.9-1.6-1.4c-0.7-0.7-1.7-0.7-2.4,0c-0.7,0.7-0.7,1.7,0,2.4
	c0.3,0.3,0.6,0.6,0.9,0.8c-1.8,2.5-6,3.6-8.5,3.9c-0.9-1.8-2.8-6.1-1.3-9.4C10.1,6,20,3.4,27.5,3.4c3.6,0,7.1,0.7,10.3,2.1
	c0.9,0.4,1.9,0,2.2-0.9c0.4-0.9,0-1.9-0.9-2.2C35.5,0.8,31.5,0,27.5,0C13.9,0,6.4,6.1,3.8,11.8c-2.3,5.1,0.7,11.2,1.7,13l-0.1,1.4
	c-3,0.4-5.4,3-5.4,6.1c0,2.7,1.8,5.1,4.2,5.9c-0.5,5.7,2,11.2,6.6,14.6l0.4,0.3c-5.1,2.4-8.6,7.6-8.6,13.5v20.3
	c0,0.9,0.8,1.7,1.7,1.7h43.9c0.9,0,1.7-0.8,1.7-1.7V66.5c0-2.9-0.8-5.7-2.4-8.2c-0.5-0.8-1.6-1-2.4-0.5c-0.8,0.5-1,1.6-0.5,2.4
	c1.2,1.9,1.9,4,1.9,6.3v9.2h-5.1v-6.4c0-0.9-0.8-1.7-1.7-1.7c-0.9,0-1.7,0.8-1.7,1.7v15.8H14.5V69.3c0-0.9-0.8-1.7-1.7-1.7
	c-0.9,0-1.7,0.8-1.7,1.7v6.4H6v-9.2c0-4.5,2.6-8.4,6.5-10.3c0.3,1.5,0.8,3,1.5,4.4c0.3,0.6,0.9,0.9,1.5,0.9c0.3,0,0.6-0.1,0.8-0.2
	c0.8-0.4,1.1-1.5,0.7-2.3c-0.4-0.7-0.7-1.5-0.9-2.4l2.7,2c2.2,1.6,4.9,2.4,7.5,2.4c2.6,0,5.3-0.8,7.5-2.4l2.7-2
	c-1.2,4.5-5.3,7.9-10.2,7.9c-2.4,0-4.7-0.8-6.6-2.3c-0.7-0.6-1.8-0.5-2.4,0.3c-0.6,0.7-0.5,1.8,0.3,2.4c2.5,2,5.5,3,8.7,3
	c6.9,0,12.6-5,13.7-11.6c0.5,0.2,1,0.5,1.5,0.8c0.3,0.2,0.6,0.3,1,0.3c0.5,0,1.1-0.3,1.4-0.7c0.5-0.8,0.3-1.8-0.5-2.4
	c-0.7-0.4-1.4-0.8-2.1-1.2l0.4-0.3c4.6-3.3,7.1-8.9,6.6-14.6c2.5-0.8,4.2-3.1,4.2-5.9c0-3.1-2.4-5.7-5.4-6.1l-0.2-2
	c-0.1-0.9-0.9-1.6-1.9-1.5c-0.9,0.1-1.6,0.9-1.5,1.9l1.3,13.9c0.4,4.5-1.6,9-5.2,11.6l-7.9,5.7c-3.3,2.4-7.7,2.4-11,0l-7.9-5.7
	c-3.7-2.7-5.7-7.1-5.2-11.6l1.2-12.5c2.6-0.4,8-1.6,10.7-5.4c3.8,1.9,8.4,1.8,14-0.5c4-1.6,8.1-1.3,12.2,1c3.2,1.8,5.2,4.2,5.2,4.2
	c0.3,0.4,0.8,0.6,1.3,0.6c0.2,0,0.4,0,0.6-0.1c0.7-0.2,1.1-0.9,1.1-1.6C54,16.1,50.2,9.1,43.4,4.6 M4.6,34.6
	c-0.7-0.5-1.2-1.3-1.2-2.3c0-1.1,0.7-2.1,1.6-2.5L4.6,34.6z M41.4,79.1h5.1v6h-5.1V79.1z M11.1,85.1H6v-6h5.1V85.1z M49.1,32.3
	c0,0.9-0.5,1.8-1.2,2.3l-0.5-4.8C48.4,30.2,49.1,31.2,49.1,32.3"/>
</svg>
