<?xml version="1.0" encoding="utf-8"?>
<!-- Generator: Adobe Illustrator 19.0.1, SVG Export Plug-In . SVG Version: 6.00 Build 0)  -->
<svg version="1.1" id="Шар_1" xmlns="http://www.w3.org/2000/svg" xmlns:xlink="http://www.w3.org/1999/xlink" x="0px" y="0px"
	 viewBox="0 0 53.5 82.4" style="enable-background:new 0 0 53.5 82.4;" xml:space="preserve">
<style type="text/css">
	.st0{fill:#0C0E0F;}
</style>
<path class="st0" d="M53.5,29.8c0-2.3-1.3-4.3-3.2-5.3l2.2-3c1-1.4,1.2-3.2,0.5-4.8c-0.7-1.6-2.2-2.7-3.9-2.9
	c-0.9-0.1-1.8,0.6-1.9,1.5c-0.1,0.9,0.6,1.8,1.5,1.9c0.7,0.1,1.1,0.6,1.2,0.8c0.1,0.2,0.3,0.8-0.2,1.4l-3.7,5.1
	c-0.4,0.6-1.1,0.6-1.3,0.6c-0.2,0-0.9-0.2-1.2-0.8L41,18.4c0.6-0.5,1.1-1.2,1.4-1.9l1.7,0.2c0.1,0,0.1,0,0.2,0
	c0.9,0,1.6-0.6,1.7-1.5c0.1-0.9-0.6-1.8-1.5-1.9l-1.7-0.2c-0.5-2.5-2.8-4.4-5.4-4.4c-0.2,0-0.4,0-0.6,0l-2.6-5.9
	c-0.7-1.6-2.2-2.7-3.9-2.9c-1.7-0.2-3.4,0.5-4.4,2L22.1,7c-1,1.4-1.2,3.2-0.5,4.8c0.7,1.6,2.2,2.7,3.9,2.9l6.4,0.7
	c0.1,0.4,0.2,0.9,0.4,1.3C28,20.9,20.6,25,9.5,22.5c1.6-5,5.3-9.2,10.2-11.3c0.9-0.4,1.3-1.4,0.9-2.2s-1.4-1.3-2.2-0.9
	C11.8,10.9,7,16.9,5.6,23.8C2.5,24,0,26.6,0,29.8c0,2.7,1.8,5,4.3,5.7c-0.3,5.8,2.3,11.4,7,14.9l1.3,1c-5,2.2-8.4,7.2-8.4,12.9v3.7
	c0,0.9,0.8,1.7,1.7,1.7c0.9,0,1.7-0.8,1.7-1.7v-3.7c0-4.1,2.4-7.8,6-9.6c1.1,6.2,6.5,11,13.1,11c5.3,0,10.1-3.2,12.2-8.1
	c0.4-0.9,0-1.9-0.9-2.2c-0.9-0.4-1.9,0-2.2,0.9c-1.5,3.7-5.1,6-9.1,6c-4.7,0-8.6-3.2-9.6-7.6l1.9,1.4c2.3,1.7,5,2.5,7.7,2.5
	c2.7,0,5.4-0.8,7.7-2.5l3-2.2c4.8,1.1,8.3,5.4,8.3,10.4V79h-4.6V66.9c0-0.9-0.8-1.7-1.7-1.7c-0.9,0-1.7,0.8-1.7,1.7V79h-22V66.9
	c0-0.9-0.8-1.7-1.7-1.7c-0.9,0-1.7,0.8-1.7,1.7V79H7.7v-4.8c0-0.9-0.8-1.7-1.7-1.7c-0.9,0-1.7,0.8-1.7,1.7v6.5
	c0,0.9,0.8,1.7,1.7,1.7h41.5c0.9,0,1.7-0.8,1.7-1.7V64.2c0-5.7-3.4-10.7-8.4-12.9l1.3-1c4.7-3.4,7.4-9.1,7-14.9
	C51.7,34.8,53.5,32.5,53.5,29.8 M4.7,32c-0.8-0.4-1.3-1.3-1.3-2.2c0-1.1,0.7-2.1,1.8-2.4L4.7,32z M37.3,12.1c1.2,0,2.1,1,2.1,2.1
	c0,1.2-1,2.1-2.1,2.1c-1.2,0-2.1-1-2.1-2.1C35.2,13.1,36.1,12.1,37.3,12.1 M32.2,12l-6.4-0.7c-0.7-0.1-1.1-0.6-1.2-0.8
	c-0.1-0.2-0.3-0.8,0.2-1.4L28.5,4c0.4-0.6,1.1-0.6,1.3-0.6c0.2,0,0.9,0.2,1.2,0.8l2.6,5.9C33,10.6,32.6,11.3,32.2,12 M40.2,47.6
	l-7.8,5.6c-3.4,2.5-7.9,2.5-11.3,0l-7.8-5.6c-4-2.9-6.1-7.7-5.6-12.6l1-9c0,0,0-0.1,0-0.1c2.6,0.6,5.1,0.9,7.3,0.9
	c6.4,0,11.4-2.1,15.2-4.8c1,1.2,2.6,2.9,5,4.2c0.9,0.5,2,0.1,2.4-0.8c0.3-0.8,0-1.7-0.7-2.2c-1.9-1.1-3.2-2.5-4-3.4
	c0.3-0.2,0.5-0.5,0.7-0.7c0.8,0.4,1.7,0.7,2.7,0.7c0.2,0,0.4,0,0.6,0l2.6,5.9c0.7,1.6,2.2,2.7,3.9,2.9c0.2,0,0.4,0,0.5,0
	c0,0,0.1,0,0.1,0l0.7,6.5C46.3,39.9,44.1,44.7,40.2,47.6 M48.8,32l-0.5-4.6c1,0.3,1.8,1.3,1.8,2.4C50.1,30.7,49.6,31.5,48.8,32"/>
</svg>
