<?xml version="1.0" encoding="utf-8"?>
<!-- Generator: Adobe Illustrator 19.0.1, SVG Export Plug-In . SVG Version: 6.00 Build 0)  -->
<svg version="1.1" id="Шар_1" xmlns="http://www.w3.org/2000/svg" xmlns:xlink="http://www.w3.org/1999/xlink" x="0px" y="0px"
	 viewBox="0 0 80.7 80.7" style="enable-background:new 0 0 80.7 80.7;" xml:space="preserve">
<style type="text/css">
	.st0{fill:#0C0E0F;}
</style>
<path class="st0" d="M74.7,80.7H6c-3.3,0-6-2.7-6-6V35c0-1.4,0.6-2.7,1.7-3.6l9.4-7.8l2.6,3.1l-9.4,7.8C4.1,34.6,4,34.8,4,35v39.7
	c0,1.1,0.9,2,2,2h68.7c1.1,0,2-0.9,2-2V35c0-0.2-0.1-0.4-0.2-0.5l-9.6-8l2.6-3.1l9.6,8c1.1,0.9,1.7,2.2,1.7,3.6v39.7
	C80.7,78,78,80.7,74.7,80.7z"/>
<path class="st0" d="M69.5,73.6L40.7,51.1c-0.2-0.2-0.6-0.2-0.8,0L11.2,73.6l-2.5-3.2L37.5,48c1.7-1.3,4-1.3,5.7,0L72,70.5
	L69.5,73.6z"/>
<rect x="62.1" y="31.5" transform="matrix(0.4595 0.8882 -0.8882 0.4595 77.1682 -31.0344)" class="st0" width="4" height="32.9"/>
<rect x="0.2" y="45.9" transform="matrix(0.8882 0.4594 -0.4594 0.8882 23.8532 -2.2702)" class="st0" width="32.9" height="4"/>
<path class="st0" d="M70.1,45.8h-4V4.6c0-0.4-0.3-0.6-0.6-0.6H15.2c-0.4,0-0.6,0.3-0.6,0.6v41.2h-4V4.6c0-2.6,2.1-4.6,4.6-4.6h50.2
	c2.6,0,4.6,2.1,4.6,4.6V45.8z"/>
<rect x="23.2" y="35.7" class="st0" width="34.4" height="4"/>
<rect x="23.2" y="25.1" class="st0" width="34.4" height="4"/>
<rect x="23.2" y="14.5" class="st0" width="21.2" height="4"/>
</svg>
