<?xml version="1.0" encoding="utf-8"?>
<!-- Generator: Adobe Illustrator 19.0.1, SVG Export Plug-In . SVG Version: 6.00 Build 0)  -->
<svg version="1.1" id="Шар_1" xmlns="http://www.w3.org/2000/svg" xmlns:xlink="http://www.w3.org/1999/xlink" x="0px" y="0px"
	 viewBox="0 0 82.1 92.3" style="enable-background:new 0 0 82.1 92.3;" xml:space="preserve">
<style type="text/css">
	.st0{fill:#0C0E0F;}
</style>
<g>
	<path class="st0" d="M65.4,49.1H64c-1,0-1.8,0.8-1.8,1.8s0.8,1.8,1.8,1.8h1.5c2.1,0,3.8,1.7,3.8,3.8c0,1.4-0.8,2.7-2.1,3.4
		c-0.6,0.3-1,0.9-1,1.5C66,62,66.3,62.7,66.8,63c0.9,0.6,1.4,1.7,1.4,2.7c0,1.4-0.9,2.6-2.1,3.1c-0.6,0.2-1,0.7-1.1,1.4
		c-0.1,0.6,0.1,1.3,0.6,1.7c0.6,0.6,1,1.4,1,2.2c0,1.4-1,2.6-2.3,2.9c-1,0.2-1.7,1.1-1.7,2.1c0,0.8,0.4,1.5,1.1,1.9
		c0.9,0.5,1.5,1.5,1.5,2.6c0,0.8-0.3,1.5-0.9,2.1c-0.6,0.6-1.4,0.9-2.2,0.9H33.2c-1,0-2-0.3-2.9-0.8l-2.1-1.3v-6.5
		c0-1-0.8-1.8-1.8-1.8c-1,0-1.8,0.8-1.8,1.8v8.2c0,1.2-1,2.2-2.2,2.2H1.8c-1,0-1.8,0.8-1.8,1.8s0.8,1.8,1.8,1.8h20.5
		c2.3,0,4.5-1.4,5.4-3.6l0.7,0.4c1.4,0.8,3.1,1.3,4.7,1.3H62c1.8,0,3.6-0.7,4.9-2c1.3-1.3,1.9-3,1.9-4.7c0-1.5-0.5-2.9-1.4-4
		c1.7-1.2,2.8-3.3,2.8-5.4c0-1.1-0.3-2.1-0.7-3.1c1.6-1.3,2.5-3.3,2.5-5.4c0-1.4-0.4-2.8-1.2-4c1.4-1.4,2.2-3.3,2.2-5.2
		C72.8,52.5,69.5,49.1,65.4,49.1z"/>
	<path class="st0" d="M41.2,15.1l-0.7,4.4c-0.2,1.2,0.3,2.4,1.3,3.1c0.6,0.4,1.2,0.6,1.9,0.6c0.5,0,1-0.1,1.5-0.4l3.9-2.1l4,2.1
		c1.1,0.6,2.4,0.5,3.4-0.3c1-0.7,1.5-1.9,1.3-3.2L56.9,15l3.2-3.1c0.9-0.9,1.2-2.1,0.8-3.3c-0.4-1.2-1.4-2-2.6-2.2l-4.4-0.6l-2-4
		C51.3,0.7,50.2,0,49,0c-1.2,0-2.3,0.7-2.9,1.8l-2,4l-4.4,0.7c-1.2,0.2-2.2,1-2.6,2.2c-0.4,1.2-0.1,2.4,0.8,3.3L41.2,15.1z
		 M53.3,15.4l0.7,3.7l-3.3-1.7c-0.9-0.5-2.1-0.5-3,0l-3.3,1.8l0.6-3.7c0.2-1-0.2-2.1-0.9-2.8L41.2,10L45,9.4c1-0.2,1.9-0.8,2.4-1.8
		L49,4.3l1.7,3.4c0.5,0.9,1.4,1.6,2.4,1.7l3.7,0.5l-2.7,2.6C53.4,13.3,53.1,14.4,53.3,15.4z"/>
	<path class="st0" d="M19.1,23.7L18.6,27c-0.2,1.1,0.3,2.2,1.2,2.9c0.5,0.4,1.1,0.6,1.7,0.6c0.5,0,1-0.1,1.4-0.3l3-1.6l3,1.6
		c1,0.5,2.2,0.4,3.1-0.2c0.9-0.7,1.4-1.8,1.2-2.9l-0.6-3.3l2.4-2.4c0.8-0.8,1.1-1.9,0.7-3c-0.4-1.1-1.3-1.8-2.4-2l-3.3-0.5l-1.5-3
		c-0.5-1-1.5-1.6-2.6-1.6c-1.1,0-2.1,0.6-2.6,1.6l-1.5,3l-3.3,0.5c-1.1,0.2-2,0.9-2.4,2c-0.3,1.1-0.1,2.2,0.8,3L19.1,23.7z
		 M28.8,23.9l0.4,2.2l-2-1c-0.9-0.4-1.9-0.4-2.7,0l-2,1.1l0.4-2.2c0.2-1-0.2-1.9-0.9-2.6l-1.6-1.6l2.2-0.3c1-0.1,1.8-0.7,2.2-1.6
		l1-2l1,2c0.4,0.9,1.3,1.5,2.2,1.6l2.2,0.3l-1.6,1.6C28.9,21.9,28.6,22.9,28.8,23.9z"/>
	<path class="st0" d="M81.9,18.3L81.9,18.3c-0.3-1.1-1.2-1.8-2.4-2l-3.3-0.5l-1.5-3c-0.5-1-1.5-1.6-2.6-1.6c-1.1,0-2.1,0.6-2.6,1.6
		l-1.5,3l-3.3,0.5c-1.1,0.2-2,0.9-2.4,2c-0.4,1.1-0.1,2.2,0.7,3l2.4,2.4l-0.6,3.3c-0.2,1.1,0.2,2.2,1.2,2.9c0.9,0.7,2.1,0.8,3.1,0.2
		l3-1.6l3,1.6c0.4,0.2,0.9,0.3,1.4,0.3c0.6,0,1.2-0.2,1.7-0.6c0.9-0.7,1.4-1.8,1.2-2.9l-0.6-3.3l2.4-2.3
		C82,20.6,82.3,19.4,81.9,18.3z M75.9,21.3c-0.7,0.7-1,1.6-0.9,2.6l0.4,2.2l-2-1.1c-0.4-0.2-0.9-0.3-1.4-0.3c-0.5,0-0.9,0.1-1.4,0.3
		l-2,1l0.4-2.2c0.2-1-0.1-1.9-0.8-2.6l-1.6-1.6l2.2-0.3c1-0.1,1.8-0.7,2.2-1.6l1-2l1,2c0.4,0.9,1.2,1.5,2.2,1.6l2.2,0.3L75.9,21.3
		L75.9,21.3z"/>
	<path class="st0" d="M1.8,47.5h5.7c1,0,1.8-0.8,1.8-1.8c0-1-0.8-1.8-1.8-1.8H1.8c-1,0-1.8,0.8-1.8,1.8C0,46.7,0.8,47.5,1.8,47.5z"
		/>
	<path class="st0" d="M13.3,47.5h9.1c1.2,0,2.2,1,2.2,2.2v22.8c0,1,0.8,1.8,1.8,1.8c1,0,1.8-0.8,1.8-1.8v-21l1.8-3.9
		c0.8-1.6,2.1-2.9,3.7-3.6l1.5-0.6c0.1,0,0.1-0.1,0.2-0.1l9.1-5.3c0.3-0.2,0.6-0.5,0.8-0.9l2.4-5.6c0.3-0.8,1.1-1.3,2-1.3
		c1.6,0,3,0.9,3.6,2.4c0.3,0.6,0.4,1.3,0.4,1.9v6.2c0,1.7-0.3,3.3-1,4.8l-1.4,3c-0.4,0.9-0.3,2,0.2,2.8c0.5,0.9,1.5,1.4,2.5,1.4h4.4
		c1,0,1.8-0.8,1.8-1.8s-0.8-1.8-1.8-1.8H55l0.9-2c0.9-2,1.4-4.1,1.4-6.3v-6.2c0-1.1-0.2-2.3-0.7-3.3c-1.2-2.9-3.9-4.7-7-4.7
		c-2.3,0-4.4,1.4-5.3,3.5l-2.2,5.1l-8.4,4.9l-1.4,0.6c-2.4,1-4.4,2.9-5.5,5.2c-1.1-1.3-2.7-2-4.4-2h-9.1c-1,0-1.8,0.8-1.8,1.8
		C11.4,46.7,12.2,47.5,13.3,47.5z"/>
</g>
</svg>
