<?xml version="1.0" encoding="utf-8"?>
<!-- Generator: Adobe Illustrator 19.0.1, SVG Export Plug-In . SVG Version: 6.00 Build 0)  -->
<svg version="1.1" id="Шар_1" xmlns="http://www.w3.org/2000/svg" xmlns:xlink="http://www.w3.org/1999/xlink" x="0px" y="0px"
	 viewBox="0 0 85.9 75.3" style="enable-background:new 0 0 85.9 75.3;" xml:space="preserve">
<style type="text/css">
	.st0{fill:#0C0E0F;}
</style>
<path class="st0" d="M43.5,26.6c-4.8,0-8.8,3.9-8.8,8.8c0,4.8,3.9,8.8,8.8,8.8c4.8,0,8.8-3.9,8.8-8.8C52.3,30.5,48.3,26.6,43.5,26.6
	 M43.5,39.9c-2.5,0-4.6-2.1-4.6-4.6c0-2.5,2.1-4.6,4.6-4.6c2.5,0,4.6,2.1,4.6,4.6C48.1,37.9,46,39.9,43.5,39.9"/>
<path class="st0" d="M78.4,6.5l-57-6.5c-2.2-0.3-4.4,0.3-6.2,1.8c-1.7,1.3-2.8,3.3-3,5.4l-1,8.6H8c-4.6,0-8,4.1-8,8.7v42.7
	c-0.1,4.4,3.3,8,7.7,8.1c0.1,0,0.2,0,0.3,0h57.3c4.6,0,8.8-3.5,8.8-8.1v-1.7c1.4-0.3,2.8-0.8,4-1.7c1.7-1.4,2.8-3.4,3-5.6l4.8-42.4
	C86.3,11.2,83,7.1,78.4,6.5 M69.9,67.2c0,2.3-2.3,4-4.6,4H8c-2.1,0.1-3.8-1.6-3.9-3.6c0-0.1,0-0.2,0-0.3v-7.7l16.2-11.9
	c1.9-1.5,4.7-1.4,6.5,0.3l11.4,10c1.7,1.4,3.9,2.3,6.2,2.3c1.8,0,3.5-0.4,5-1.4l20.5-11.9V67.2z M69.9,42L47.2,55.3
	c-2,1.2-4.4,0.9-6.2-0.5L29.5,44.6c-3.3-2.8-8.1-3-11.6-0.4l-13.8,10V24.5C4.2,22.2,5.7,20,8,20h57.3c2.5,0.1,4.4,2,4.6,4.5V42z
	 M81.7,15.3C81.7,15.3,81.7,15.3,81.7,15.3l-4.9,42.4c0,1.1-0.5,2.1-1.4,2.8c-0.4,0.4-1.4,0.6-1.4,0.8V24.5c-0.2-4.8-4-8.6-8.8-8.7
	H15.4l0.9-8.1c0.2-1.1,0.8-2,1.6-2.7c0.9-0.6,2-0.9,3.1-0.8l56.9,6.6C80.2,10.9,81.9,13,81.7,15.3"/>
</svg>
