<?xml version="1.0" encoding="utf-8"?>
<!-- Generator: Adobe Illustrator 19.0.1, SVG Export Plug-In . SVG Version: 6.00 Build 0)  -->
<svg version="1.1" id="Шар_1" xmlns="http://www.w3.org/2000/svg" xmlns:xlink="http://www.w3.org/1999/xlink" x="0px" y="0px"
	 viewBox="0 0 77.4 95" style="enable-background:new 0 0 77.4 95;" xml:space="preserve">
<style type="text/css">
	.st0{fill:#0C0E0F;}
</style>
<path class="st0" d="M21.4,38.4c-1.1,0-2,0.9-2,2v3.5c0,1.1,0.9,2,2,2c1.1,0,2-0.9,2-2v-3.5C23.4,39.3,22.5,38.4,21.4,38.4"/>
<path class="st0" d="M45.5,38.4c-1.1,0-2,0.9-2,2v3.5c0,1.1,0.9,2,2,2c1.1,0,2-0.9,2-2v-3.5C47.6,39.3,46.7,38.4,45.5,38.4"/>
<path class="st0" d="M77.4,34.3c0-4.8-3.1-8.9-7.4-10.5c-0.3-7.1-3.1-12.9-7.9-16.9c-4.7-3.9-11-5.9-18.5-6C41.8,0.3,39.8,0,37.9,0
	H29c-4.3,0-8.4,1.4-11.9,3.9c-3.1,2.3-5.5,5.4-6.8,9C10,13,9.8,13,9.5,13.1c-3.1,0.6-5.3,3.2-5.5,6.3c-0.2,3.9-0.3,7.9-0.4,11.9
	c0,1.2,0.3,2.4,0.9,3.4L0.6,55.3c-1.9,9.8,0.7,19.9,7.1,27.6C14.1,90.6,23.4,95,33.4,95s19.4-4.4,25.8-12.1c6.4-7.7,9-17.8,7.1-27.6
	l-1.9-10c0.6,0.1,1.2,0.2,1.9,0.2C72.4,45.4,77.4,40.4,77.4,34.3 M65.9,23.1c-1,0-1.9,0.2-2.8,0.4c-0.1-1.4-0.1-2.8-0.2-4.2
	c-0.2-3.1-2.4-5.7-5.5-6.3c-0.3-0.1-0.5-0.1-0.8-0.2c-0.9-2.5-2.4-4.8-4.2-6.7c2.7,0.8,5.1,2.1,7.1,3.8
	C63.3,13.1,65.4,17.6,65.9,23.1 M29,4.1h8.9c5.8,0,11,3.1,13.8,8c-12.1-1.8-24.4-1.8-36.5,0C18,7.2,23.2,4.1,29,4.1 M8.1,19.6
	c0.1-1.3,1-2.3,2.2-2.5c7.7-1.5,15.4-2.2,23.2-2.2c7.7,0,15.5,0.7,23.2,2.2c1.2,0.2,2.1,1.3,2.2,2.5c0.2,3.9,0.3,7.8,0.4,11.7
	c0,0.8-0.4,1.6-1,2.1c-0.6,0.5-1.5,0.7-2.3,0.5c-14.9-3.2-30-3.2-44.9,0c-0.8,0.2-1.6,0-2.3-0.5c-0.6-0.5-1-1.3-1-2.1
	C7.7,27.4,7.9,23.5,8.1,19.6 M16.5,58.4c2-2.1,4.1-4.3,7.2-5.5c2.3-1,4.3-1,6,0c1.2,0.7,1.9,2.2,1.5,3.7c-0.9,3.9-2.9,6.4-5.9,7.5
	c-3.1,1.1-6.5,0.6-8.9,0c-1.5-0.4-3-1-4.4-1.6C13.7,61.3,15.1,59.9,16.5,58.4 M29.6,48.3c0-2.1,1.7-3.9,3.9-3.9
	c2.1,0,3.9,1.7,3.9,3.9c0,0,0,0.1,0,0.1c-0.8,0.2-1.5,0.5-2,0.8c-0.7,0.4-1.3,0.9-1.8,1.4c-0.5-0.5-1-0.9-1.6-1.3
	c-0.6-0.4-1.4-0.7-2.3-0.9C29.6,48.4,29.6,48.3,29.6,48.3 M33.4,62.3c0.6,1,1.3,1.9,2,2.6c-0.6,0.3-1.3,0.4-2,0.4
	c-0.7,0-1.4-0.1-2-0.4C32.2,64.2,32.8,63.3,33.4,62.3 M35.6,56.6c-0.3-1.5,0.3-3,1.7-3.8c0.8-0.4,1.7-0.6,2.6-0.6
	c1,0,2.1,0.2,3.3,0.7c3.1,1.3,5.2,3.5,7.2,5.5c1.4,1.4,2.8,2.9,4.5,3.9c-1.4,0.7-2.9,1.2-4.4,1.6c-2.4,0.6-5.8,1.1-8.9,0
	C38.5,63,36.5,60.4,35.6,56.6 M49.8,52.3c-1.4-1.2-3.1-2.3-5.2-3.2c-1.2-0.5-2.2-0.8-3.2-0.9c-0.1-4.4-3.6-7.9-8-7.9
	c-4.4,0-7.9,3.5-8,7.9c-1,0.1-2.1,0.4-3.2,0.9c-2.1,0.8-3.7,2-5.2,3.2c-2.4-2.6-3.7-5.9-3.7-9.5v-5.1c13.3-2.7,26.8-2.7,40.1,0v5.1
	C53.5,46.3,52.2,49.7,49.8,52.3 M56.1,80.3C50.5,87,42.2,90.9,33.4,90.9s-17-3.9-22.6-10.6C5.2,73.5,3,64.7,4.6,56.1l3.5-18.4
	C8.5,37.9,8.9,38,9.3,38v4.7c0,4.6,1.7,9,4.8,12.3c-0.2,0.2-0.3,0.3-0.5,0.5c-2.6,2.6-4.1,4.1-6.5,4.1c-0.9,0-1.7,0.6-1.9,1.4
	c-0.3,0.8,0,1.8,0.7,2.3c4,3,10,5.4,15.5,5.4c1.9,0,3.7-0.3,5.4-0.9c0.3-0.1,0.7-0.3,1-0.4c1.6,1.3,3.6,1.9,5.6,1.9
	c2.1,0,4-0.7,5.6-1.9c0.3,0.2,0.7,0.3,1,0.4c1.7,0.6,3.5,0.9,5.4,0.9c5.5,0,11.5-2.4,15.5-5.4c0.7-0.5,1-1.4,0.7-2.3
	c-0.3-0.8-1.1-1.4-1.9-1.4c-2.4,0-4-1.5-6.5-4.1c-0.2-0.2-0.3-0.3-0.5-0.5c3.1-3.3,4.8-7.7,4.8-12.3V38c0.4-0.1,0.8-0.2,1.2-0.3
	l3.5,18.4C63.9,64.7,61.6,73.5,56.1,80.3 M62.4,34.7c0.6-1,0.9-2.2,0.9-3.4c0-1.1,0-2.3,0-3.4c0.9-0.4,2-0.7,3-0.7
	c3.9,0,7.1,3.2,7.1,7.1c0,3.9-3.2,7.1-7.1,7.1c-0.9,0-1.9-0.2-2.7-0.5L62.4,34.7z"/>
<path class="st0" d="M55.6,23.1c-1.1,0.1-2,1-1.9,2.2l0.3,5.7c0.1,1.1,1,1.9,2,1.9c0,0,0.1,0,0.1,0c1.1-0.1,2-1,1.9-2.2l-0.3-5.7
	C57.7,23.9,56.7,23.1,55.6,23.1"/>
<path class="st0" d="M53.4,20.8c0.1,1.1,1,1.9,2,1.9c0,0,0.1,0,0.1,0c1.1-0.1,2-1,1.9-2.2l-0.1-1.2c-0.1-1.1-1-2-2.2-1.9
	c-1.1,0.1-2,1-1.9,2.2L53.4,20.8z"/>
</svg>
