<svg id="Capa_1" data-name="Capa 1" xmlns="http://www.w3.org/2000/svg" viewBox="0 0 103.22 85.83"><defs><style>.cls-1,.cls-2{stroke:#000;stroke-miterlimit:10;}.cls-1{stroke-width:4px;}.cls-2{stroke-width:6px;}</style></defs><polygon class="cls-1" points="92.87 6.81 92.87 58.97 89.66 58.97 89.66 63.6 100.5 63.6 100.5 58.97 97.28 58.97 97.28 6.81 100.5 6.81 100.5 2.17 89.66 2.17 89.66 6.81 92.87 6.81"/><polygon class="cls-1" points="76.86 83.02 81.38 83.02 81.38 72.18 76.86 72.18 76.86 75.39 7.23 75.39 7.23 72.18 2.71 72.18 2.71 83.02 7.23 83.02 7.23 79.8 76.86 79.8 76.86 83.02"/><path class="cls-2" d="M3.65,3.55V62.47H80.38V3.55ZM75.6,8.33V57.69H8.42V8.33Z"/></svg>