<svg id="Capa_1" data-name="Capa 1" xmlns="http://www.w3.org/2000/svg" viewBox="0 0 114.63 114.92"><defs><style>.cls-1{stroke:#000;stroke-miterlimit:10;stroke-width:3px;}</style></defs><g id="Layer_2" data-name="Layer 2"><path class="cls-1" d="M102,68.43A46,46,0,0,1,86.36,93.35a44.2,44.2,0,0,1-18.73,9.05,45.29,45.29,0,0,1-39.36-9.77,45.78,45.78,0,0,1-7.1-7.58,45.43,45.43,0,0,1,62.92-64,1.91,1.91,0,0,1,.18,3l-4.88,4.39a.23.23,0,0,0,.13.41l17.42,2.25a2.44,2.44,0,0,0,2.87-2.6L99,11a.11.11,0,0,0-.19-.08c-1.47,1.29-5.1,4.53-5.1,4.53a1.92,1.92,0,0,1-2.47.06A54.15,54.15,0,0,0,14.17,90.23a54.83,54.83,0,0,0,11.68,11.58,54.16,54.16,0,0,0,73.09-8.66,55.75,55.75,0,0,0,11.94-24.77C111.61,64.93,103.41,62.4,102,68.43Z"/></g></svg>