<?xml version="1.0" encoding="UTF-8"?> <svg xmlns="http://www.w3.org/2000/svg" id="Capa_1" height="512" viewBox="0 0 512 512" width="512"> <g> <g> <g> <path d="m254.645 512c-12.407 0-22.5-10.094-22.5-22.5v-30.569l-22.997 15.367c-4.996 3.339-10.996 4.534-16.89 3.36-5.895-1.173-10.979-4.57-14.318-9.567s-4.532-10.996-3.36-16.891c1.173-5.894 4.57-10.979 9.567-14.318l47.999-32.073v-30.86l-68.594-40.879-25.007 14.453-1.175 18.236c-.267 4.133-3.824 7.278-7.967 7.002-4.133-.267-7.269-3.833-7.002-7.967l1.433-22.239c.161-2.501 1.561-4.757 3.731-6.011l32.292-18.664c2.353-1.36 5.258-1.342 7.592.051l76.036 45.313c2.27 1.353 3.661 3.8 3.661 6.442v39.131c0 2.505-1.25 4.845-3.333 6.236l-51.332 34.301c-1.666 1.112-2.799 2.808-3.189 4.772s.007 3.964 1.12 5.63 2.808 2.799 4.773 3.189 3.964-.007 5.628-1.12l34.665-23.163c2.301-1.536 5.262-1.684 7.703-.378 2.44 1.305 3.964 3.847 3.964 6.614v44.602c0 4.136 3.364 7.5 7.5 7.5s7.5-3.364 7.5-7.5v-44.602c0-2.768 1.524-5.31 3.965-6.614 2.438-1.306 5.399-1.159 7.702.378l34.664 23.162c1.667 1.115 3.669 1.515 5.633 1.12 1.964-.393 3.657-1.524 4.769-3.188 1.114-1.667 1.512-3.666 1.121-5.631-.392-1.965-1.523-3.66-3.189-4.772l-51.332-34.301c-2.083-1.392-3.333-3.731-3.333-6.236v-39.131c0-2.643 1.391-5.09 3.66-6.442l76.035-45.313c2.336-1.393 5.24-1.411 7.593-.051l35.003 20.23c2.17 1.254 3.57 3.51 3.731 6.011l3.976 61.716c.129 2.001 1.028 3.829 2.532 5.149 1.509 1.325 3.434 1.991 5.427 1.853 2.007-.129 3.836-1.028 5.159-2.533 1.322-1.505 1.979-3.435 1.851-5.434l-2.689-41.738c-.178-2.761 1.179-5.396 3.529-6.854 2.349-1.459 5.314-1.505 7.708-.121l38.585 22.301c1.733 1.001 3.755 1.27 5.688.752 1.936-.516 3.555-1.757 4.558-3.493 2.07-3.58.841-8.177-2.74-10.247l-38.621-22.322c-2.394-1.383-3.832-3.972-3.743-6.734.089-2.764 1.691-5.254 4.169-6.48l37.47-18.547c3.706-1.835 5.229-6.344 3.395-10.05-1.835-3.707-6.346-5.226-10.05-3.395l-55.357 27.402c-2.249 1.112-4.908 1.027-7.08-.229l-35.175-20.33c-2.319-1.34-3.747-3.814-3.747-6.493v-42.293c0-4.142 3.357-7.5 7.5-7.5s7.5 3.358 7.5 7.5v37.965l27.949 16.154 51.757-25.62c11.118-5.499 24.645-.935 30.146 10.184 5.503 11.118.935 24.643-10.183 30.147l-24.925 12.337 26.502 15.317c10.741 6.209 14.43 19.999 8.221 30.739-3.01 5.209-7.868 8.932-13.68 10.481-5.805 1.547-11.861.744-17.059-2.259l-26.446-15.285 1.788 27.746c.387 5.997-1.585 11.787-5.553 16.302-3.968 4.514-9.456 7.213-15.454 7.599-5.978.399-11.772-1.578-16.296-5.549-4.517-3.967-7.217-9.456-7.604-15.457l-3.718-57.712-27.718-16.021-68.594 40.877v30.861l47.999 32.073c4.997 3.34 8.395 8.425 9.567 14.319 1.172 5.895-.021 11.894-3.361 16.891-3.334 4.99-8.413 8.387-14.302 9.563-5.9 1.177-11.901-.015-16.905-3.356l-22.997-15.367v30.57c-.001 12.407-10.095 22.501-22.501 22.501zm-142.231-85.709c-.496 0-.995-.017-1.494-.049-5.99-.386-11.479-3.085-15.446-7.599-3.968-4.515-5.94-10.304-5.553-16.301l1.788-27.748-26.447 15.286c-3.418 1.978-7.308 3.023-11.245 3.023-8.017 0-15.486-4.309-19.495-11.244-6.208-10.743-2.52-24.532 8.222-30.74l26.501-15.317-24.924-12.337c-11.119-5.504-15.687-19.027-10.184-30.146 5.504-11.117 19.026-15.685 30.145-10.185l51.759 25.62 25.239-14.588v-79.065l-25.239-14.587-51.758 25.619c-11.119 5.503-24.641.936-30.146-10.183-5.504-11.12-.936-24.643 10.183-30.147l24.924-12.337-26.502-15.318c-10.742-6.208-14.43-19.998-8.222-30.739 6.207-10.742 19.996-14.43 30.738-8.222l26.446 15.286-1.788-27.747c-.387-5.998 1.585-11.787 5.553-16.301s9.456-7.213 15.454-7.599c5.99-.397 11.774 1.576 16.29 5.542 4.521 3.97 7.223 9.462 7.609 15.465l3.718 57.71 25.341 14.646 25.569-14.355c3.613-2.028 8.185-.744 10.211 2.868 2.028 3.612.744 8.184-2.868 10.212l-29.295 16.447c-2.309 1.296-5.132 1.278-7.425-.046l-32.514-18.792c-2.17-1.254-3.57-3.51-3.731-6.011l-3.976-61.714c-.129-2.002-1.03-3.834-2.538-5.158-1.503-1.32-3.435-1.972-5.421-1.845-2.007.129-3.836 1.029-5.159 2.533-1.322 1.505-1.98 3.435-1.851 5.434l2.689 41.74c.178 2.761-1.179 5.395-3.529 6.854-2.351 1.459-5.314 1.505-7.709.121l-38.584-22.302c-3.582-2.069-8.177-.841-10.245 2.741-2.07 3.581-.84 8.177 2.74 10.247l38.622 22.323c2.394 1.384 3.832 3.972 3.743 6.735s-1.691 5.253-4.169 6.48l-37.47 18.547c-3.706 1.834-5.229 6.343-3.395 10.049s6.341 5.228 10.048 3.395l55.359-27.402c2.25-1.114 4.906-1.028 7.08.228l32.465 18.764c2.319 1.34 3.747 3.815 3.747 6.494v87.721c0 2.678-1.428 5.153-3.747 6.493l-32.465 18.764c-2.174 1.257-4.831 1.341-7.08.229l-55.353-27.405c-3.705-1.834-8.214-.311-10.049 3.395-1.834 3.706-.311 8.214 3.395 10.049l37.47 18.547c2.478 1.227 4.08 3.717 4.169 6.48s-1.349 5.351-3.743 6.734l-38.622 22.323c-3.581 2.069-4.81 6.666-2.74 10.247 1.336 2.313 3.83 3.75 6.507 3.75 1.322 0 2.579-.34 3.737-1.009l38.587-22.303c2.395-1.385 5.358-1.338 7.708.121s3.707 4.094 3.529 6.854l-2.689 41.74c-.129 1.999.529 3.929 1.851 5.433 1.323 1.505 3.152 2.404 5.151 2.533 1.997.132 3.918-.524 5.425-1.844 1.51-1.322 2.413-3.154 2.542-5.157l.484-7.521c.266-4.133 3.843-7.268 7.966-7.002 4.134.267 7.269 3.833 7.002 7.967l-.484 7.521c-.387 6.012-3.096 11.509-7.628 15.478-4.14 3.625-9.341 5.577-14.784 5.577zm157.231-84.028c-1.277 0-2.556-.326-3.705-.979-2.346-1.332-3.795-3.822-3.795-6.521v-54.336c0-2.68 1.43-5.156 3.752-6.496 2.32-1.339 5.181-1.338 7.501.003l46.286 26.752c2.304 1.331 3.729 3.782 3.747 6.443.018 2.66-1.375 5.131-3.66 6.492l-46.286 27.584c-1.183.705-2.511 1.058-3.84 1.058zm7.5-48.839v28.139l23.97-14.285zm-37.499 48.839c-1.329 0-2.657-.353-3.839-1.058l-46.288-27.585c-2.285-1.361-3.678-3.832-3.661-6.492.018-2.66 1.444-5.112 3.747-6.443l46.288-26.753c2.32-1.342 5.18-1.341 7.501-.003 2.321 1.34 3.751 3.816 3.751 6.496v54.338c0 2.698-1.449 5.188-3.795 6.521-1.148.653-2.427.979-3.704.979zm-31.471-34.987 23.971 14.286v-28.141zm122.334-18.821c-1.296 0-2.592-.336-3.753-1.007l-45.891-26.522c-2.319-1.341-3.747-3.815-3.747-6.494s1.428-5.153 3.747-6.494l45.891-26.523c2.32-1.341 5.18-1.342 7.502-.002 2.321 1.339 3.751 3.816 3.751 6.496v53.046c0 2.68-1.43 5.156-3.751 6.496-1.16.669-2.455 1.004-3.749 1.004zm-30.902-34.023 23.402 13.526v-27.052zm-120.825 34.02c-1.294 0-2.588-.335-3.749-1.004-2.321-1.34-3.751-3.816-3.751-6.496v-53.042c0-2.68 1.43-5.156 3.751-6.496 2.32-1.34 5.18-1.339 7.501.002l45.887 26.521c2.319 1.34 3.747 3.815 3.747 6.494s-1.428 5.153-3.747 6.494l-45.887 26.521c-1.16.67-2.456 1.006-3.752 1.006zm7.5-47.545v27.048l23.399-13.524zm53.364-4.968c-1.296 0-2.592-.335-3.753-1.007l-45.619-26.367c-2.333-1.348-3.764-3.845-3.747-6.54s1.479-5.174 3.829-6.493l45.619-25.612c2.322-1.304 5.162-1.278 7.46.067 2.298 1.346 3.711 3.809 3.711 6.473v51.979c0 2.68-1.43 5.157-3.751 6.496-1.16.669-2.455 1.004-3.749 1.004zm-30.468-33.772 22.968 13.275v-26.169zm60.467 33.769c-1.294 0-2.589-.334-3.748-1.004-2.322-1.339-3.752-3.816-3.752-6.496v-52.005c0-2.662 1.411-5.125 3.708-6.471 2.297-1.345 5.134-1.373 7.457-.073l45.694 25.595c2.353 1.318 3.816 3.797 3.835 6.493.018 2.696-1.412 5.195-3.747 6.544l-45.694 26.41c-1.161.672-2.457 1.007-3.753 1.007zm7.5-46.707v26.21l23.029-13.311zm83.364 42.271c-4.143 0-7.5-3.358-7.5-7.5v-13.431c0-2.678 1.428-5.153 3.747-6.494l35.175-20.33c2.172-1.256 4.83-1.342 7.08-.228l55.358 27.402c3.708 1.836 8.215.313 10.049-3.394s.312-8.215-3.395-10.05l-37.47-18.546c-2.478-1.227-4.08-3.717-4.169-6.48s1.35-5.352 3.743-6.735l38.622-22.323c3.58-2.07 4.81-6.666 2.74-10.247-1.003-1.735-2.62-2.975-4.556-3.492-1.938-.52-3.957-.251-5.689.751l-38.586 22.301c-2.394 1.383-5.356 1.337-7.708-.122-2.351-1.459-3.707-4.094-3.529-6.854l2.689-41.739c.129-2-.528-3.929-1.851-5.434-1.323-1.504-3.151-2.404-5.15-2.533-1.999-.127-3.932.526-5.435 1.848-1.505 1.323-2.404 3.153-2.533 5.154l-3.976 61.715c-.161 2.501-1.562 4.757-3.731 6.012l-35.131 20.305c-2.29 1.323-5.11 1.343-7.418.05l-75.906-42.519c-2.368-1.327-3.835-3.829-3.835-6.543v-38.862c0-2.505 1.25-4.844 3.333-6.236l51.332-34.301c3.438-2.298 4.366-6.964 2.069-10.403-1.114-1.667-2.809-2.799-4.773-3.19-1.966-.391-3.964.007-5.628 1.12l-34.665 23.164c-2.302 1.539-5.263 1.683-7.702.378-2.44-1.304-3.965-3.847-3.965-6.614v-44.6c0-4.136-3.364-7.5-7.5-7.5-4.135 0-7.5 3.364-7.5 7.5v44.602c0 2.768-1.524 5.31-3.965 6.614-2.44 1.305-5.401 1.16-7.702-.378l-34.664-23.163c-1.665-1.113-3.663-1.511-5.63-1.12-1.964.391-3.659 1.523-4.772 3.189-1.114 1.666-1.511 3.665-1.121 5.63s1.523 3.66 3.189 4.773l51.332 34.301c2.083 1.392 3.333 3.731 3.333 6.236v38.872c0 2.712-1.464 5.212-3.829 6.54l-18.616 10.451c-3.612 2.029-8.184.744-10.212-2.868-2.027-3.612-.744-8.184 2.868-10.211l14.788-8.302v-30.473l-47.999-32.074c-4.997-3.339-8.395-8.424-9.567-14.319s.021-11.893 3.36-16.89c3.338-4.996 8.423-8.394 14.318-9.567 5.894-1.171 11.893.021 16.89 3.36l22.997 15.367v-30.57c0-12.407 10.093-22.5 22.5-22.5 12.406 0 22.5 10.093 22.5 22.5v30.568l22.997-15.367c4.996-3.339 10.996-4.535 16.89-3.36 5.895 1.172 10.979 4.571 14.318 9.568 6.893 10.313 4.108 24.314-6.207 31.208l-47.999 32.074v30.458l68.348 38.286 27.963-16.162 3.718-57.711c.386-5.998 3.084-11.487 7.598-15.455 4.518-3.971 10.31-5.943 16.309-5.551 5.991.386 11.479 3.084 15.447 7.599 3.968 4.514 5.939 10.303 5.553 16.301l-1.788 27.747 26.446-15.285c5.203-3.008 11.268-3.807 17.072-2.255 5.807 1.553 10.66 5.274 13.667 10.478 6.207 10.74 2.52 24.53-8.222 30.738l-26.502 15.318 24.924 12.337c11.118 5.504 15.687 19.028 10.184 30.146-5.502 11.117-19.025 15.684-30.146 10.185l-51.758-25.62-27.949 16.153v9.102c.003 4.142-3.354 7.5-7.497 7.5z"></path> </g> </g> </g> </svg> 